<svg xmlns="http://www.w3.org/2000/svg" xmlns:xlink="http://www.w3.org/1999/xlink" width="2000" zoomAndPan="magnify" viewBox="0 0 1500 1499.999933" height="2000" preserveAspectRatio="xMidYMid meet" version="1.0"><defs><clipPath id="442e6c692b"><path d="M 65.605469 525 L 515.605469 525 L 515.605469 975 L 65.605469 975 Z M 65.605469 525 " clip-rule="nonzero"/></clipPath><clipPath id="32150ea575"><path d="M 136.105469 525 L 445.105469 525 C 484.042969 525 515.605469 556.5625 515.605469 595.5 L 515.605469 904.5 C 515.605469 943.4375 484.042969 975 445.105469 975 L 136.105469 975 C 97.167969 975 65.605469 943.4375 65.605469 904.5 L 65.605469 595.5 C 65.605469 556.5625 97.167969 525 136.105469 525 Z M 136.105469 525 " clip-rule="nonzero"/></clipPath><clipPath id="0b4079120a"><path d="M 0.605469 0 L 450.605469 0 L 450.605469 450 L 0.605469 450 Z M 0.605469 0 " clip-rule="nonzero"/></clipPath><clipPath id="9b77d42c18"><path d="M 71.105469 0 L 380.105469 0 C 419.042969 0 450.605469 31.5625 450.605469 70.5 L 450.605469 379.5 C 450.605469 418.4375 419.042969 450 380.105469 450 L 71.105469 450 C 32.167969 450 0.605469 418.4375 0.605469 379.5 L 0.605469 70.5 C 0.605469 31.5625 32.167969 0 71.105469 0 Z M 71.105469 0 " clip-rule="nonzero"/></clipPath><clipPath id="7f492be6e7"><rect x="0" width="451" y="0" height="450"/></clipPath><clipPath id="63d3ecca64"><path d="M 532.324219 525 L 982.324219 525 L 982.324219 975 L 532.324219 975 Z M 532.324219 525 " clip-rule="nonzero"/></clipPath><clipPath id="845e5fd776"><path d="M 602.824219 525 L 911.824219 525 C 950.761719 525 982.324219 556.5625 982.324219 595.5 L 982.324219 904.5 C 982.324219 943.4375 950.761719 975 911.824219 975 L 602.824219 975 C 563.890625 975 532.324219 943.4375 532.324219 904.5 L 532.324219 595.5 C 532.324219 556.5625 563.890625 525 602.824219 525 Z M 602.824219 525 " clip-rule="nonzero"/></clipPath><clipPath id="c56e9d3be5"><path d="M 0.324219 0 L 450.324219 0 L 450.324219 450 L 0.324219 450 Z M 0.324219 0 " clip-rule="nonzero"/></clipPath><clipPath id="67138b47e6"><path d="M 70.824219 0 L 379.824219 0 C 418.761719 0 450.324219 31.5625 450.324219 70.5 L 450.324219 379.5 C 450.324219 418.4375 418.761719 450 379.824219 450 L 70.824219 450 C 31.890625 450 0.324219 418.4375 0.324219 379.5 L 0.324219 70.5 C 0.324219 31.5625 31.890625 0 70.824219 0 Z M 70.824219 0 " clip-rule="nonzero"/></clipPath><clipPath id="0992ee47c3"><rect x="0" width="451" y="0" height="450"/></clipPath><clipPath id="ec801f6eaf"><path d="M 999.042969 525 L 1449.042969 525 L 1449.042969 975 L 999.042969 975 Z M 999.042969 525 " clip-rule="nonzero"/></clipPath><clipPath id="edfc16ef0d"><path d="M 1069.542969 525 L 1378.542969 525 C 1417.480469 525 1449.042969 556.5625 1449.042969 595.5 L 1449.042969 904.5 C 1449.042969 943.4375 1417.480469 975 1378.542969 975 L 1069.542969 975 C 1030.609375 975 999.042969 943.4375 999.042969 904.5 L 999.042969 595.5 C 999.042969 556.5625 1030.609375 525 1069.542969 525 Z M 1069.542969 525 " clip-rule="nonzero"/></clipPath><clipPath id="fb0767fb6d"><path d="M 0.0429688 0 L 450.042969 0 L 450.042969 450 L 0.0429688 450 Z M 0.0429688 0 " clip-rule="nonzero"/></clipPath><clipPath id="fe8672a357"><path d="M 70.542969 0 L 379.542969 0 C 418.480469 0 450.042969 31.5625 450.042969 70.5 L 450.042969 379.5 C 450.042969 418.4375 418.480469 450 379.542969 450 L 70.542969 450 C 31.609375 450 0.0429688 418.4375 0.0429688 379.5 L 0.0429688 70.5 C 0.0429688 31.5625 31.609375 0 70.542969 0 Z M 70.542969 0 " clip-rule="nonzero"/></clipPath><clipPath id="254f28ccc5"><rect x="0" width="451" y="0" height="450"/></clipPath></defs><g clip-path="url(#442e6c692b)"><g clip-path="url(#32150ea575)"><g transform="matrix(1, 0, 0, 1, 65, 525)"><g clip-path="url(#7f492be6e7)"><g clip-path="url(#0b4079120a)"><g clip-path="url(#9b77d42c18)"><path fill="#22c55e" d="M 0.605469 0 L 450.605469 0 L 450.605469 450 L 0.605469 450 Z M 0.605469 0 " fill-opacity="1" fill-rule="nonzero"/></g></g></g></g></g></g><g clip-path="url(#63d3ecca64)"><g clip-path="url(#845e5fd776)"><g transform="matrix(1, 0, 0, 1, 532, 525)"><g clip-path="url(#0992ee47c3)"><g clip-path="url(#c56e9d3be5)"><g clip-path="url(#67138b47e6)"><path fill="#eab308" d="M 0.324219 0 L 450.324219 0 L 450.324219 450 L 0.324219 450 Z M 0.324219 0 " fill-opacity="1" fill-rule="nonzero"/></g></g></g></g></g></g><g clip-path="url(#ec801f6eaf)"><g clip-path="url(#edfc16ef0d)"><g transform="matrix(1, 0, 0, 1, 999, 525)"><g clip-path="url(#254f28ccc5)"><g clip-path="url(#fb0767fb6d)"><g clip-path="url(#fe8672a357)"><path fill="#ef4444" d="M 0.0429688 0 L 450.042969 0 L 450.042969 450 L 0.0429688 450 Z M 0.0429688 0 " fill-opacity="1" fill-rule="nonzero"/></g></g></g></g></g></g></svg>